<svg width="758" height="758" viewBox="0 0 758 758" fill="none" xmlns="http://www.w3.org/2000/svg">
<g opacity="0.1">
<path fill-rule="evenodd" clip-rule="evenodd" d="M117.704 519.985C117.704 496.891 143.219 483.668 164.451 476.777C185.496 469.141 209.149 464.671 231.497 462.436C266.511 458.339 305.435 460.574 336.165 477.894C355.72 489.441 372.854 510.114 359.072 531.159C351.064 544.196 334.489 553.694 319.962 560.213C286.811 576.415 247.7 585.728 209.894 583.12C177.488 579.768 141.357 567.29 124.223 540.471C119.939 533.58 117.704 526.689 117.704 519.798V519.985Z" fill="#F1F1F1"/>
<path fill-rule="evenodd" clip-rule="evenodd" d="M117.704 232.056C117.704 208.962 143.219 195.739 164.451 188.848C185.496 181.212 209.149 176.929 231.497 174.694C266.511 170.597 305.435 172.831 336.165 190.152C355.72 201.699 372.854 222.371 359.072 243.417C351.064 256.454 334.489 265.952 319.962 272.47C286.811 288.673 247.7 297.985 209.894 295.378C177.488 292.025 141.357 279.361 124.223 252.729C119.939 245.838 117.704 238.947 117.704 232.242V232.056Z" fill="white"/>
<path fill-rule="evenodd" clip-rule="evenodd" d="M364.101 381.234C364.101 404.328 338.586 417.551 317.354 424.442C296.309 432.078 272.657 436.548 250.308 438.783C215.294 442.694 176.37 440.645 145.64 423.325C126.085 411.778 108.951 391.105 122.733 370.06C130.741 357.023 147.503 347.525 161.843 341.006C194.994 324.803 234.105 315.491 271.912 318.099C304.317 321.451 340.448 333.929 357.582 360.748C361.866 367.639 364.101 374.53 364.101 381.421V381.234Z" fill="#F8F8F8"/>
<path fill-rule="evenodd" clip-rule="evenodd" d="M379 0C588.335 0 758 169.665 758 379C758 588.335 588.335 758 379 758C169.665 758 0 588.335 0 379C0 169.665 169.665 0 379 0ZM531.531 63.8806V303.759C522.778 304.131 514.211 304.69 505.644 305.807L502.85 306.18V51.5887C464.298 37.0619 422.767 29.0536 379.186 29.0536C335.606 29.0536 293.888 37.0619 255.522 51.5887V159.05C246.769 159.422 238.202 159.981 229.635 160.912L226.841 161.285V63.8806C109.696 120.684 29.0536 240.437 29.0536 379C29.0536 517.563 109.696 637.316 226.469 694.119V597.647C236.153 597.274 245.652 596.529 255.15 595.039V706.411C293.702 720.938 335.233 728.946 378.814 728.946C422.394 728.946 464.112 720.938 502.478 706.411V597.647C512.162 597.274 521.66 596.529 531.159 595.039V694.119C647.932 637.502 728.574 517.563 728.574 379C728.574 240.437 647.932 120.684 531.159 63.8806H531.531Z" fill="white"/>
<path fill-rule="evenodd" clip-rule="evenodd" d="M394.085 519.985C394.085 496.891 419.6 483.668 440.831 476.777C461.877 469.141 485.529 464.671 507.878 462.436C542.891 458.339 581.816 460.574 612.545 477.894C632.101 489.441 649.235 510.114 635.453 531.159C627.445 544.196 610.869 553.694 596.342 560.213C563.192 576.415 524.081 585.728 486.274 583.12C453.868 579.768 417.738 567.29 400.603 540.471C396.32 533.58 394.085 526.689 394.085 519.798V519.985Z" fill="#F1F1F1"/>
<path fill-rule="evenodd" clip-rule="evenodd" d="M640.296 381.234C640.296 404.328 614.781 417.551 593.55 424.442C572.505 432.078 548.852 436.548 526.503 438.783C491.49 442.694 452.565 440.645 421.836 423.325C402.28 411.778 385.146 391.105 398.928 370.06C406.936 357.023 423.512 347.525 438.039 341.006C471.19 324.803 510.3 315.491 548.107 318.099C580.513 321.451 616.644 333.929 633.778 360.748C638.061 367.639 640.296 374.53 640.296 381.421V381.234Z" fill="#F8F8F8"/>
</g>
</svg>
