<svg width="893" height="605" viewBox="0 0 893 605" fill="none" xmlns="http://www.w3.org/2000/svg">
<g clip-path="url(#clip0_1603_2)">
<path d="M298.35 6.8195L162.691 133.324C158.651 137.091 158.43 143.418 162.197 147.458L288.702 283.117C292.468 287.156 298.796 287.377 302.835 283.611L438.495 157.106C442.534 153.34 442.755 147.012 438.988 142.973L312.484 7.31305C308.717 3.2739 302.389 3.05293 298.35 6.8195Z" fill="#CA9EA4"/>
<path d="M443.565 164.913L307.906 291.417C303.866 295.184 303.645 301.511 307.412 305.551L433.917 441.21C437.683 445.249 444.011 445.47 448.05 441.704L583.71 315.199C587.749 311.433 587.97 305.105 584.203 301.066L457.699 165.406C453.932 161.367 447.604 161.146 443.565 164.913Z" fill="#584B53"/>
<path d="M599.689 19.6976L464.03 146.202C459.99 149.969 459.769 156.296 463.536 160.336L590.041 295.995C593.807 300.034 600.135 300.255 604.174 296.489L739.834 169.984C743.873 166.218 744.094 159.89 740.327 155.851L613.823 20.1911C610.056 16.152 603.728 15.931 599.689 19.6976Z" fill="#EDCED0"/>
<path d="M142.973 152.413L7.31354 278.917C3.27438 282.684 3.05341 289.011 6.81998 293.051L133.325 428.71C137.091 432.749 143.419 432.97 147.458 429.204L283.118 302.699C287.157 298.933 287.378 292.605 283.611 288.566L157.107 152.906C153.34 148.867 147.012 148.646 142.973 152.413Z" fill="#584B53"/>
<path d="M288.189 310.129L152.53 436.633C148.49 440.4 148.269 446.727 152.036 450.767L278.541 586.426C282.307 590.465 288.635 590.686 292.674 586.92L428.334 460.415C432.373 456.649 432.594 450.321 428.827 446.282L302.323 310.622C298.556 306.583 292.228 306.362 288.189 310.129Z" fill="#EDCED0"/>
<path d="M744.904 176.129L609.245 302.633C605.205 306.4 604.984 312.727 608.751 316.767L735.256 452.426C739.022 456.465 745.35 456.686 749.389 452.92L885.049 326.415C889.088 322.649 889.309 316.321 885.542 312.282L759.038 176.622C755.271 172.583 748.943 172.362 744.904 176.129Z" fill="#584B53"/>
<path d="M588.78 321.343L453.121 447.848C449.081 451.615 448.86 457.942 452.627 461.982L579.132 597.641C582.898 601.68 589.226 601.901 593.265 598.135L728.925 471.63C732.964 467.864 733.185 461.536 729.418 457.497L602.914 321.837C599.147 317.798 592.819 317.577 588.78 321.343Z" fill="#CA9EA4"/>
</g>
<defs>
<clipPath id="clip0_1603_2">
<rect width="892.361" height="604.955" fill="white"/>
</clipPath>
</defs>
</svg>
