<svg width="203" height="41" viewBox="0 0 203 41" fill="none" xmlns="http://www.w3.org/2000/svg">
<g clip-path="url(#clip0_1_3)">
<path d="M202.12 25.32L201.81 24.49C201.72 24.57 201.6 24.63 201.47 24.68C201.34 24.73 201.18 24.75 201 24.75C200.72 24.75 200.49 24.66 200.3 24.48C200.11 24.31 199.96 24.06 199.86 23.74C199.76 23.42 199.71 23.04 199.71 22.6C199.71 22.16 199.75 21.79 199.84 21.47C199.93 21.15 200.07 20.91 200.26 20.73C200.45 20.56 200.7 20.47 201.01 20.47C201.2 20.47 201.36 20.5 201.49 20.55C201.62 20.6 201.72 20.66 201.8 20.73L202.09 19.97C202.02 19.91 201.92 19.84 201.8 19.78C201.68 19.72 201.53 19.67 201.35 19.63C201.17 19.59 200.96 19.57 200.72 19.56C200.39 19.56 200.08 19.63 199.79 19.76C199.5 19.89 199.25 20.09 199.04 20.35C198.82 20.61 198.66 20.93 198.54 21.31C198.42 21.69 198.36 22.13 198.36 22.63C198.36 23.12 198.42 23.56 198.54 23.95C198.66 24.33 198.82 24.66 199.03 24.93C199.24 25.2 199.49 25.4 199.78 25.54C200.07 25.68 200.38 25.75 200.72 25.75C200.96 25.75 201.17 25.73 201.35 25.69C201.53 25.65 201.68 25.6 201.81 25.54C201.94 25.48 202.04 25.41 202.12 25.33V25.32ZM197.15 25.62V21.37C197.15 21.13 197.11 20.9 197.03 20.68C196.95 20.46 196.82 20.27 196.63 20.1C196.45 19.93 196.2 19.8 195.9 19.7C195.6 19.6 195.22 19.55 194.78 19.55C194.28 19.55 193.83 19.59 193.45 19.67C193.06 19.75 192.73 19.85 192.45 19.99V25.63H193.8V20.58C193.88 20.55 193.97 20.52 194.06 20.49C194.15 20.46 194.24 20.45 194.35 20.43C194.46 20.42 194.58 20.41 194.73 20.41C194.94 20.41 195.12 20.44 195.26 20.5C195.4 20.56 195.51 20.63 195.59 20.73C195.67 20.83 195.73 20.93 195.76 21.05C195.79 21.17 195.81 21.29 195.81 21.41V25.63H197.16L197.15 25.62ZM190.92 25.62V18.01H189.51V25.62H190.92Z" fill="#492D2A"/>
<path d="M186.72 24.3C186.72 24 186.69 23.71 186.62 23.44C186.55 23.16 186.42 22.9 186.25 22.65C186.07 22.4 185.82 22.16 185.5 21.93C185.18 21.7 184.77 21.49 184.28 21.29C183.98 21.17 183.72 21.04 183.49 20.9C183.26 20.75 183.09 20.58 182.96 20.39C182.83 20.19 182.77 19.96 182.76 19.68C182.76 19.44 182.82 19.21 182.93 19.01C183.04 18.81 183.21 18.64 183.42 18.52C183.64 18.4 183.9 18.33 184.22 18.33C184.46 18.33 184.69 18.36 184.9 18.42C185.11 18.48 185.29 18.55 185.46 18.64C185.62 18.73 185.76 18.81 185.86 18.9L186.43 17.55C186.1 17.33 185.72 17.16 185.28 17.03C184.84 16.9 184.34 16.84 183.78 16.83C183.29 16.83 182.85 16.91 182.45 17.06C182.05 17.21 181.71 17.42 181.43 17.69C181.14 17.96 180.93 18.27 180.77 18.63C180.62 18.99 180.54 19.37 180.54 19.78C180.54 20.05 180.57 20.31 180.63 20.57C180.7 20.83 180.81 21.09 180.98 21.33C181.15 21.58 181.38 21.81 181.69 22.03C181.99 22.25 182.39 22.45 182.87 22.64C183.22 22.77 183.5 22.91 183.72 23.06C183.94 23.21 184.1 23.39 184.21 23.59C184.32 23.79 184.36 24.04 184.36 24.33C184.36 24.62 184.3 24.86 184.16 25.08C184.03 25.3 183.85 25.47 183.61 25.59C183.38 25.71 183.1 25.78 182.78 25.78C182.5 25.78 182.24 25.75 182 25.69C181.76 25.64 181.54 25.56 181.35 25.48C181.16 25.39 181 25.3 180.87 25.19L180.26 26.67C180.57 26.88 180.96 27.06 181.45 27.19C181.94 27.33 182.48 27.4 183.08 27.41C183.64 27.41 184.14 27.32 184.59 27.16C185.04 27 185.42 26.77 185.74 26.48C186.06 26.19 186.29 25.86 186.47 25.49C186.64 25.12 186.72 24.72 186.72 24.3ZM178.95 27.14V25.7C178.86 25.73 178.77 25.75 178.68 25.77C178.59 25.79 178.5 25.8 178.4 25.8C178.13 25.8 177.92 25.74 177.76 25.63C177.59 25.52 177.47 25.37 177.4 25.17C177.32 24.97 177.29 24.74 177.29 24.47V18.5H178.96V17.02H177.29V14.12L174.98 14.76V17.01H173.84V18.49H174.98V24.57C174.98 24.93 175.03 25.27 175.14 25.6C175.25 25.93 175.41 26.22 175.64 26.48C175.86 26.74 176.15 26.94 176.51 27.1C176.87 27.25 177.29 27.33 177.8 27.33C178.08 27.33 178.31 27.3 178.51 27.26C178.71 27.22 178.86 27.17 178.97 27.12L178.95 27.14ZM171.99 27.23V19.95C171.99 19.53 171.92 19.14 171.79 18.77C171.65 18.4 171.43 18.06 171.11 17.77C170.8 17.48 170.38 17.25 169.86 17.08C169.34 16.91 168.7 16.83 167.94 16.82C167.08 16.82 166.32 16.89 165.66 17.02C165 17.15 164.43 17.33 163.94 17.56V27.23H166.25V18.57C166.39 18.51 166.54 18.46 166.69 18.42C166.84 18.38 167.01 18.34 167.19 18.32C167.38 18.3 167.59 18.28 167.84 18.28C168.2 18.28 168.5 18.33 168.74 18.43C168.98 18.53 169.17 18.66 169.3 18.82C169.44 18.98 169.53 19.16 169.59 19.37C169.65 19.57 169.68 19.78 169.67 19.99V27.23H171.98H171.99ZM161.47 26.62V17.01H159.16V25.5C158.96 25.61 158.74 25.7 158.49 25.76C158.24 25.82 157.95 25.84 157.62 25.84C157.22 25.84 156.9 25.76 156.64 25.61C156.39 25.46 156.2 25.26 156.08 25C155.96 24.74 155.9 24.45 155.9 24.12V17.01H153.59V23.99C153.59 24.74 153.73 25.37 154.01 25.89C154.29 26.4 154.73 26.79 155.31 27.05C155.9 27.31 156.64 27.44 157.55 27.44C158.14 27.44 158.68 27.4 159.17 27.33C159.66 27.26 160.09 27.16 160.47 27.04C160.85 26.92 161.19 26.78 161.47 26.63V26.62ZM149.21 22.11C149.21 22.6 149.19 23.06 149.14 23.51C149.09 23.95 148.99 24.35 148.86 24.7C148.72 25.05 148.52 25.33 148.27 25.53C148.01 25.74 147.68 25.84 147.27 25.84C146.88 25.84 146.55 25.73 146.29 25.53C146.03 25.33 145.83 25.05 145.69 24.7C145.55 24.35 145.45 23.95 145.4 23.51C145.34 23.06 145.31 22.6 145.32 22.11C145.32 21.62 145.34 21.14 145.4 20.69C145.45 20.23 145.55 19.83 145.69 19.46C145.83 19.1 146.03 18.81 146.29 18.6C146.55 18.39 146.88 18.28 147.28 18.28C147.69 18.28 148.02 18.39 148.28 18.6C148.54 18.81 148.73 19.1 148.87 19.46C149.01 19.82 149.1 20.23 149.15 20.69C149.2 21.14 149.23 21.62 149.22 22.11H149.21ZM151.5 22.13C151.5 21.36 151.42 20.66 151.24 20.01C151.07 19.37 150.81 18.81 150.45 18.33C150.1 17.85 149.66 17.48 149.13 17.22C148.6 16.95 147.97 16.82 147.25 16.82C146.54 16.82 145.91 16.96 145.38 17.22C144.84 17.48 144.41 17.85 144.05 18.33C143.7 18.81 143.44 19.37 143.26 20.01C143.09 20.65 143 21.36 143 22.13C143 22.9 143.09 23.59 143.26 24.23C143.43 24.87 143.7 25.43 144.05 25.91C144.4 26.39 144.84 26.76 145.38 27.02C145.91 27.28 146.53 27.42 147.25 27.42C147.96 27.42 148.59 27.28 149.12 27.02C149.65 26.75 150.1 26.39 150.45 25.91C150.8 25.43 151.06 24.87 151.24 24.23C151.42 23.59 151.5 22.89 151.5 22.13ZM141.97 26.68L141.4 25.13C141.25 25.22 141.1 25.31 140.94 25.37C140.78 25.44 140.61 25.49 140.42 25.53C140.23 25.57 140.01 25.58 139.76 25.58C139.33 25.58 138.96 25.49 138.63 25.32C138.3 25.14 138.02 24.9 137.78 24.59C137.55 24.28 137.35 23.92 137.2 23.51C137.05 23.1 136.94 22.65 136.87 22.18C136.8 21.7 136.77 21.21 136.77 20.7C136.77 20.19 136.8 19.7 136.87 19.22C136.93 18.74 137.04 18.29 137.18 17.87C137.32 17.45 137.51 17.08 137.74 16.76C137.97 16.44 138.26 16.19 138.59 16.01C138.92 15.83 139.31 15.74 139.76 15.73C140.15 15.73 140.48 15.78 140.75 15.87C141.02 15.96 141.26 16.06 141.44 16.18L141.97 14.74C141.66 14.51 141.29 14.33 140.85 14.2C140.41 14.07 139.89 14 139.28 14C138.62 14 138.02 14.12 137.48 14.36C136.95 14.59 136.48 14.92 136.08 15.34C135.68 15.76 135.34 16.25 135.07 16.82C134.8 17.38 134.6 17.99 134.46 18.65C134.32 19.31 134.25 19.99 134.25 20.71C134.25 21.43 134.32 22.13 134.45 22.8C134.59 23.46 134.79 24.08 135.05 24.64C135.32 25.2 135.65 25.69 136.05 26.1C136.45 26.52 136.92 26.84 137.45 27.07C137.98 27.3 138.58 27.42 139.24 27.42C139.83 27.42 140.35 27.35 140.81 27.23C141.27 27.1 141.65 26.92 141.95 26.68H141.97ZM129.52 27.23V19.95C129.52 19.53 129.45 19.14 129.31 18.77C129.17 18.4 128.95 18.06 128.63 17.77C128.32 17.48 127.9 17.25 127.38 17.08C126.86 16.91 126.22 16.83 125.46 16.82C124.6 16.82 123.84 16.89 123.18 17.02C122.52 17.15 121.95 17.33 121.47 17.56V27.23H123.78V18.57C123.92 18.51 124.07 18.46 124.22 18.42C124.37 18.38 124.54 18.34 124.72 18.32C124.91 18.3 125.12 18.28 125.37 18.28C125.73 18.28 126.03 18.33 126.27 18.43C126.51 18.53 126.7 18.66 126.83 18.82C126.97 18.98 127.07 19.16 127.12 19.37C127.18 19.57 127.2 19.78 127.2 19.99V27.23H129.51H129.52ZM116.84 25.85C116.67 25.93 116.46 26.01 116.22 26.06C115.98 26.11 115.72 26.14 115.46 26.14C114.78 26.14 114.26 25.99 113.88 25.69C113.51 25.38 113.32 24.9 113.32 24.24C113.32 23.78 113.4 23.39 113.56 23.09C113.72 22.78 113.96 22.54 114.26 22.35C114.57 22.16 114.94 22.01 115.37 21.91C115.8 21.8 116.29 21.72 116.84 21.65V25.86V25.85ZM119 26.68V20.35C119 19.69 118.9 19.14 118.71 18.69C118.52 18.24 118.25 17.88 117.91 17.6C117.56 17.33 117.17 17.13 116.71 17.01C116.25 16.89 115.76 16.83 115.23 16.83C114.69 16.83 114.2 16.88 113.75 16.96C113.3 17.04 112.91 17.14 112.57 17.26C112.23 17.38 111.95 17.49 111.72 17.6L112.25 18.93C112.46 18.83 112.7 18.73 112.97 18.63C113.24 18.53 113.53 18.46 113.84 18.39C114.15 18.33 114.47 18.3 114.8 18.3C115.2 18.3 115.55 18.34 115.86 18.44C116.16 18.54 116.4 18.71 116.57 18.96C116.74 19.21 116.83 19.55 116.83 19.99V20.54C116.2 20.6 115.61 20.68 115.04 20.79C114.48 20.9 113.95 21.04 113.48 21.22C113.01 21.4 112.59 21.63 112.24 21.91C111.89 22.19 111.62 22.52 111.42 22.92C111.23 23.32 111.13 23.78 111.13 24.32C111.13 24.98 111.28 25.54 111.59 26C111.9 26.47 112.36 26.82 112.98 27.06C113.6 27.3 114.37 27.42 115.3 27.43C116.1 27.43 116.81 27.36 117.44 27.22C118.07 27.09 118.59 26.91 119 26.69V26.68ZM107.36 21.15L103.13 21.79C103.11 20.97 103.2 20.31 103.38 19.78C103.56 19.26 103.82 18.87 104.16 18.62C104.5 18.37 104.89 18.24 105.34 18.24C105.76 18.24 106.13 18.33 106.43 18.53C106.73 18.73 106.96 19.04 107.12 19.47C107.28 19.9 107.36 20.46 107.36 21.14V21.15ZM109.52 22.06C109.55 20.92 109.41 19.96 109.1 19.18C108.79 18.4 108.33 17.82 107.71 17.42C107.09 17.03 106.33 16.83 105.42 16.83C104.53 16.83 103.75 17.04 103.1 17.45C102.45 17.86 101.95 18.46 101.6 19.24C101.25 20.02 101.06 20.97 101.06 22.09C101.06 23.24 101.26 24.21 101.64 25C102.03 25.79 102.57 26.39 103.28 26.8C103.99 27.21 104.83 27.41 105.8 27.41C106.58 27.41 107.24 27.33 107.8 27.2C108.36 27.06 108.82 26.9 109.17 26.69L108.62 25.23C108.44 25.33 108.22 25.42 107.97 25.5C107.72 25.59 107.43 25.65 107.11 25.71C106.79 25.77 106.43 25.79 106.04 25.79C105.2 25.79 104.55 25.55 104.08 25.08C103.61 24.61 103.34 23.9 103.25 22.95L109.5 22.04L109.52 22.06ZM96.99 23.63C96.99 24.19 96.87 24.64 96.65 24.98C96.43 25.32 96.11 25.57 95.72 25.72C95.32 25.87 94.86 25.95 94.34 25.94C94.02 25.94 93.74 25.92 93.5 25.88C93.26 25.84 93.03 25.78 92.83 25.69V21.01L93.57 20.99C94.39 20.97 95.05 21.06 95.55 21.25C96.06 21.44 96.42 21.74 96.66 22.13C96.89 22.53 97 23.03 97 23.63H96.99ZM96.65 17.53C96.65 18.05 96.56 18.49 96.36 18.84C96.16 19.19 95.84 19.45 95.39 19.62C94.94 19.79 94.33 19.86 93.56 19.84L92.82 19.82V15.59C93.03 15.51 93.26 15.46 93.49 15.42C93.72 15.38 93.98 15.36 94.26 15.36C95.05 15.36 95.64 15.54 96.04 15.9C96.44 16.26 96.64 16.8 96.64 17.52L96.65 17.53ZM99.4 23.67C99.4 23.29 99.34 22.94 99.22 22.63C99.1 22.31 98.94 22.03 98.74 21.77C98.54 21.52 98.31 21.3 98.06 21.11C97.81 20.92 97.56 20.77 97.29 20.64C97.03 20.52 96.78 20.43 96.53 20.38V20.34C96.81 20.28 97.09 20.17 97.37 20.02C97.65 19.87 97.91 19.68 98.15 19.43C98.39 19.19 98.58 18.9 98.72 18.56C98.87 18.22 98.94 17.83 98.94 17.38C98.94 16.89 98.84 16.45 98.65 16.04C98.45 15.63 98.16 15.27 97.77 14.97C97.38 14.67 96.89 14.43 96.3 14.26C95.71 14.09 95.02 14.01 94.24 14C93.71 14 93.22 14.03 92.76 14.1C92.3 14.16 91.87 14.25 91.5 14.36C91.12 14.47 90.8 14.6 90.53 14.75V26.69C90.98 26.93 91.53 27.11 92.18 27.24C92.83 27.37 93.57 27.43 94.4 27.43C95.15 27.43 95.82 27.36 96.43 27.21C97.04 27.06 97.56 26.83 98 26.53C98.44 26.22 98.78 25.84 99.02 25.36C99.26 24.89 99.38 24.33 99.38 23.68L99.4 23.67ZM86.27 17.02H84.11L82.21 23.64C82.13 23.91 82.08 24.15 82.04 24.37C82 24.59 81.97 24.76 81.95 24.89C81.93 25.02 81.93 25.09 81.93 25.09H81.89C81.89 25.09 81.89 25.02 81.89 24.89C81.89 24.76 81.87 24.58 81.83 24.37C81.8 24.15 81.75 23.91 81.68 23.64L79.92 17.02H77.46L80.83 27.24L79.73 29.93H82.06L86.27 17.03V17.02ZM76.77 16.85C76.13 16.83 75.56 16.83 75.06 16.85C74.56 16.87 74.12 16.92 73.74 16.98C73.35 17.04 73.01 17.12 72.7 17.22C72.39 17.32 72.11 17.43 71.84 17.56V27.23H74.15V18.61C74.33 18.51 74.54 18.44 74.77 18.39C75.01 18.35 75.26 18.34 75.52 18.36C75.78 18.38 76.04 18.44 76.31 18.52L76.76 16.83L76.77 16.85ZM67.58 21.15L63.35 21.79C63.33 20.97 63.42 20.31 63.6 19.78C63.78 19.26 64.05 18.87 64.38 18.62C64.72 18.37 65.11 18.24 65.56 18.24C65.98 18.24 66.35 18.33 66.65 18.53C66.95 18.73 67.18 19.04 67.34 19.47C67.5 19.9 67.58 20.46 67.58 21.14V21.15ZM69.74 22.06C69.77 20.92 69.63 19.96 69.32 19.18C69.01 18.4 68.55 17.82 67.93 17.42C67.31 17.03 66.55 16.83 65.64 16.83C64.75 16.83 63.97 17.04 63.32 17.45C62.67 17.86 62.17 18.46 61.82 19.24C61.47 20.02 61.29 20.97 61.28 22.09C61.28 23.24 61.48 24.21 61.86 25C62.25 25.79 62.79 26.39 63.5 26.8C64.21 27.21 65.05 27.41 66.02 27.41C66.8 27.41 67.46 27.33 68.02 27.2C68.58 27.06 69.04 26.9 69.39 26.69L68.84 25.23C68.66 25.33 68.44 25.42 68.19 25.5C67.94 25.59 67.65 25.65 67.33 25.71C67.01 25.77 66.65 25.79 66.26 25.79C65.42 25.79 64.77 25.55 64.31 25.08C63.85 24.61 63.57 23.9 63.48 22.95L69.73 22.04L69.74 22.06ZM60.3 17.02H58.14L56.3 23.62C56.23 23.88 56.18 24.11 56.14 24.32C56.1 24.53 56.07 24.7 56.06 24.83C56.04 24.96 56.04 25.02 56.04 25.03H56C56 25.03 56 24.96 55.98 24.83C55.97 24.7 55.94 24.53 55.91 24.32C55.87 24.11 55.82 23.88 55.75 23.63L53.95 17.03H51.49L54.83 27.25H57.03L60.31 17.03L60.3 17.02ZM50.35 27.24V25.63H46.41V21.35H49.92V19.76H46.41V15.82H50.35V14.21H44V27.25H50.35V27.24Z" fill="#492D2A"/>
<path fill-rule="evenodd" clip-rule="evenodd" d="M6.32001 27.92C6.32001 26.68 7.69001 25.97 8.83001 25.6C9.96001 25.19 11.23 24.95 12.43 24.83C14.31 24.61 16.4 24.73 18.05 25.66C19.1 26.28 20.02 27.39 19.28 28.52C18.85 29.22 17.96 29.73 17.18 30.08C15.4 30.95 13.3 31.45 11.27 31.31C9.53001 31.13 7.59001 30.46 6.67001 29.02C6.44001 28.65 6.32001 28.28 6.32001 27.91V27.92Z" fill="#EDCFD1"/>
<path fill-rule="evenodd" clip-rule="evenodd" d="M6.32001 12.46C6.32001 11.22 7.69001 10.51 8.83001 10.14C9.96001 9.73 11.23 9.49 12.43 9.38C14.31 9.16 16.4 9.28 18.05 10.21C19.1 10.83 20.02 11.94 19.28 13.07C18.85 13.77 17.96 14.28 17.18 14.63C15.4 15.5 13.3 16 11.27 15.86C9.53001 15.68 7.59001 15.01 6.67001 13.57C6.44001 13.2 6.32001 12.83 6.32001 12.47V12.46Z" fill="#5C2E2C"/>
<path fill-rule="evenodd" clip-rule="evenodd" d="M19.55 20.47C19.55 21.71 18.18 22.42 17.04 22.79C15.91 23.2 14.64 23.44 13.44 23.55C11.56 23.77 9.47 23.65 7.82 22.72C6.77 22.1 5.85 20.99 6.59 19.86C7.02 19.16 7.92 18.65 8.69 18.3C10.47 17.43 12.57 16.93 14.6 17.07C16.34 17.25 18.28 17.92 19.2 19.36C19.43 19.73 19.55 20.1 19.55 20.47Z" fill="#CB9FA5"/>
<path fill-rule="evenodd" clip-rule="evenodd" d="M20.35 0C31.59 0 40.7 9.11 40.7 20.35C40.7 31.59 31.59 40.7 20.35 40.7C9.11 40.7 0 31.59 0 20.35C0 9.11 9.11 0 20.35 0ZM28.54 3.43V16.31C28.07 16.33 27.61 16.36 27.15 16.42L27 16.44V2.77C24.93 1.99 22.7 1.56 20.36 1.56C18.02 1.56 15.78 1.99 13.72 2.77V8.54C13.25 8.56 12.79 8.59 12.33 8.64L12.18 8.66V3.43C5.89 6.48 1.56 12.91 1.56 20.35C1.56 27.79 5.89 34.22 12.16 37.27V32.09C12.68 32.07 13.19 32.02 13.7 31.95V37.93C15.77 38.71 18 39.14 20.34 39.14C22.68 39.14 24.92 38.71 26.98 37.93V32.09C27.5 32.07 28.01 32.02 28.52 31.95V37.27C34.79 34.23 39.12 27.79 39.12 20.35C39.12 12.91 34.79 6.48 28.52 3.43H28.54Z" fill="#5C2E2C"/>
<path fill-rule="evenodd" clip-rule="evenodd" d="M21.16 27.92C21.16 26.68 22.53 25.97 23.67 25.6C24.8 25.19 26.07 24.95 27.27 24.83C29.15 24.61 31.24 24.73 32.89 25.66C33.94 26.28 34.86 27.39 34.12 28.52C33.69 29.22 32.8 29.73 32.02 30.08C30.24 30.95 28.14 31.45 26.11 31.31C24.37 31.13 22.43 30.46 21.51 29.02C21.28 28.65 21.16 28.28 21.16 27.91V27.92Z" fill="#EDCFD1"/>
<path fill-rule="evenodd" clip-rule="evenodd" d="M34.38 20.47C34.38 21.71 33.01 22.42 31.87 22.79C30.74 23.2 29.47 23.44 28.27 23.55C26.39 23.77 24.3 23.65 22.65 22.72C21.6 22.1 20.68 20.99 21.42 19.86C21.85 19.16 22.74 18.65 23.52 18.3C25.3 17.43 27.4 16.93 29.43 17.07C31.17 17.25 33.11 17.92 34.03 19.36C34.26 19.73 34.38 20.1 34.38 20.47Z" fill="#CB9FA5"/>
</g>
<defs>
<clipPath id="clip0_1_3">
<rect width="202.12" height="40.7" fill="white"/>
</clipPath>
</defs>
</svg>
